<svg id="Capa_1" enable-background="new 0 0 512 512" height="512" viewBox="0 0 512 512" width="512" xmlns="http://www.w3.org/2000/svg"><path d="m512 31.893h-256l-20.016 147.587 276.016-20.016z" fill="#b4d2d7"/><path d="m0 31.893v127.571l256 20.016v-147.587z" fill="#e1ebf0"/><path d="m512 159.464h-256l-20.016 163.805 20.016 156.838h256z" fill="#03232e"/><path d="m0 159.464h256v320.644h-256z" fill="#07485e"/><path d="m47.839 80.678h31.893v30h-31.893z" fill="#ff6c6c"/><path d="m111.625 80.678h31.893v30h-31.893z" fill="#ffd422"/><path d="m175.41 80.678h31.893v30h-31.893z" fill="#00dd80"/><path d="m283.523 266.631v53.155h30v-53.155c0-31.719-25.805-57.523-57.523-57.523l-10.008 16.869 10.008 13.13c15.176 0 27.523 12.348 27.523 27.524z" fill="#b4d2d7"/><path d="m198.477 266.631v53.155h30v-53.155c0-15.176 12.347-27.523 27.523-27.523v-30c-31.719-.001-57.523 25.804-57.523 57.523z" fill="#e1ebf0"/><path d="m345.417 304.786h-89.417l-20.016 62.839 20.016 62.838h89.417z" fill="#ff9f22"/><path d="m166.583 304.786h89.417v125.678h-89.417z" fill="#ffd422"/><path d="m315.417 334.786h-59.417l-20.016 32.839 20.016 32.838h59.417z" fill="#ffd422"/><path d="m196.583 334.786h59.417v65.678h-59.417z" fill="#fff79f"/></svg>