<svg xmlns="http://www.w3.org/2000/svg" xmlns:xlink="http://www.w3.org/1999/xlink" id="logo" viewBox="0 0 232.02 85"><defs><style>.cls-1,.cls-2,.cls-3{fill-rule:evenodd}.cls-1{fill:url(#linear-gradient)}.cls-2{fill:url(#linear-gradient-2)}.cls-3{fill:url(#linear-gradient-3)}.cls-4{fill:#e53e3e}</style><linearGradient id="linear-gradient" x1="160.93" x2="241.93" y1="-42.26" y2="-78.32" gradientTransform="matrix(1, 0, 0, -1, -161, 0)" gradientUnits="userSpaceOnUse"><stop offset="0" stop-color="#E53E3E"/><stop offset=".26" stop-color="#E53E3E"/><stop offset=".98" stop-color="#E53E3E" stop-opacity=".23"/><stop offset="1" stop-color="#E53E3E"/></linearGradient><linearGradient id="linear-gradient-2" x1="160.93" x2="241.93" y1="-24.62" y2="-60.68" xlink:href="#linear-gradient"/><linearGradient id="linear-gradient-3" x1="160.93" x2="241.93" y1="-6.98" y2="-43.04" xlink:href="#linear-gradient"/></defs><title>logo</title><g id="icon"><path id="Shape_590_copy_2" d="M39.69,85,81,60.94,40.5,35.28,0,60.94Z" class="cls-1" data-name="Shape 590 copy 2"/><path id="Shape_590_copy" d="M39.69,67.36,81,43.3,40.5,17.64,0,43.3Z" class="cls-2" data-name="Shape 590 copy"/><path d="M39.69,49.72,81,25.66,40.5,0,0,25.66Z" class="cls-3"/></g><path d="M105.75,11.08a6.22,6.22,0,0,0-3.85,1.09,3.54,3.54,0,0,0-1.42,3,3.67,3.67,0,0,0,1.78,3.08,23.88,23.88,0,0,0,5,2.45,20.25,20.25,0,0,1,4.17,2,8.8,8.8,0,0,1,2.85,3,9.2,9.2,0,0,1,1.13,4.77,8.84,8.84,0,0,1-1.31,4.73,9.22,9.22,0,0,1-3.78,3.37,12.74,12.74,0,0,1-5.85,1.26,19.22,19.22,0,0,1-5.85-.92,18.35,18.35,0,0,1-5.13-2.54l2.34-4.1a15,15,0,0,0,3.94,2.09,12.24,12.24,0,0,0,4.21.84A7.64,7.64,0,0,0,108.13,34a3.9,3.9,0,0,0,1.8-3.53,4,4,0,0,0-1.5-3.15,15,15,0,0,0-4.21-2.3,34.73,34.73,0,0,1-4.64-2,9.68,9.68,0,0,1-3.17-2.83,7.61,7.61,0,0,1-1.33-4.57,8.28,8.28,0,0,1,2.73-6.46A11,11,0,0,1,105,6.45a20,20,0,0,1,5.7.74,18.53,18.53,0,0,1,4.56,2.1l-2,4A16.65,16.65,0,0,0,105.75,11.08Z" class="cls-4"/><path d="M141.7,6.63v5h-8.46V39.39H128V11.67h-8.23v-5Z" class="cls-4"/><path d="M162.58,31.7H150.66l-3.15,7.69h-5.18L156.82,5.28h.32l14.49,34.11h-6Zm-1.75-4.5-4.1-10.35L152.5,27.2Z" class="cls-4"/><path d="M195.59,38.81a15.83,15.83,0,0,1-5.56.94,17.17,17.17,0,0,1-8.88-2.23,15.28,15.28,0,0,1-5.85-6,17,17,0,0,1-2.05-8.26,18.4,18.4,0,0,1,2.05-8.77A15.16,15.16,0,0,1,181,8.45a16.08,16.08,0,0,1,8.35-2.18,17.79,17.79,0,0,1,5.33.77A18.8,18.8,0,0,1,199,9L197,13.88a12.78,12.78,0,0,0-7.42-2.57,10.07,10.07,0,0,0-5.38,1.55,11.49,11.49,0,0,0-4,4.23A12,12,0,0,0,178.69,23,13,13,0,0,0,180.07,29,10.11,10.11,0,0,0,184,33.2a11.25,11.25,0,0,0,5.87,1.51,12.12,12.12,0,0,0,4.3-.72,10.53,10.53,0,0,0,3.22-1.84l2.2,4.68A17.06,17.06,0,0,1,195.59,38.81Z" class="cls-4"/><path d="M211.72,20.85l.72-1L224.77,6.63h6.75L218,20.94l14,18.45h-6.66L214.15,24.27l-2.29,2.25V39.39h-5.31V6.63h5.31V19.19Z" class="cls-4"/><path d="M112.9,68.7H101l-3.15,7.69H92.65l14.49-34.11h.32L122,76.39h-6Zm-1.75-4.5-4.1-10.36L102.82,64.2Z" class="cls-4"/><path d="M145.53,46.42a9.8,9.8,0,0,1,3.15,7.74,12.56,12.56,0,0,1-1.13,5.29,9.14,9.14,0,0,1-3.62,4A11.91,11.91,0,0,1,137.52,65h-4.73V76.39h-5.26V43.63h9.27Q142.38,43.63,145.53,46.42ZM141,59a5.21,5.21,0,0,0,1.89-2.25,6.57,6.57,0,0,0,.56-2.54,6.19,6.19,0,0,0-1.33-3.83c-.88-1.17-2.38-1.75-4.48-1.75h-4.86V60h4.73A6,6,0,0,0,141,59Z" class="cls-4"/><path d="M160.29,43.63V76.39H155V43.63Z" class="cls-4"/></svg>